<?xml version="1.0" encoding="utf-8"?>
<!-- Generator: Adobe Illustrator 16.0.0, SVG Export Plug-In . SVG Version: 6.00 Build 0)  -->
<!DOCTYPE svg PUBLIC "-//W3C//DTD SVG 1.1//EN" "http://www.w3.org/Graphics/SVG/1.1/DTD/svg11.dtd">
<svg version="1.1" id="katman_1" xmlns="http://www.w3.org/2000/svg" xmlns:xlink="http://www.w3.org/1999/xlink" x="0px" y="0px"
	 width="800px" height="240.904px" viewBox="-58.302 -20.087 800 240.904" enable-background="new -58.302 -20.087 800 240.904"
	 xml:space="preserve">
<g>
	<path fill="#C69C6D" d="M254.645-20.083c-0.05,17.452-0.103,34.905-0.15,52.356c-0.011,3.631-0.075,7.262,0.026,10.889
		c0.051,1.844-0.558,2.38-2.204,2.375c-18.327-0.051-36.654-0.06-54.981,0.009c-1.904,0.006-2.175-0.872-2.171-2.638
		c0.04-19.922,0.026-39.848,0.017-59.773c0-1.072-0.117-2.146-0.179-3.222C214.883-20.083,234.764-20.083,254.645-20.083z
		 M241.627-7.782c-3.088,0-5.545,0.171-7.973-0.048c-2.274-0.206-3.6,0.732-4.75,2.842c-2.164,3.967-4.634,7.736-6.888,11.651
		c-0.91,1.583-2.275,1.659-3.493,1.19c-0.539-0.207-0.912-1.685-0.941-2.601c-0.102-3.47-0.104-6.948,0.001-10.416
		c0.063-2.047-0.677-2.757-2.491-2.637c-1.896,0.125-3.803,0.074-5.706,0.019c-1.357-0.038-1.908,0.609-1.88,2.071
		c0.042,2.317,0.003,4.631,0.003,6.949c0,9.88,0.029,19.759-0.024,29.637c-0.009,1.843,0.47,2.711,2.279,2.583
		c1.823-0.134,3.667-0.114,5.493-0.005c1.751,0.104,2.372-0.676,2.332-2.571c-0.088-3.933,0.073-7.876-0.071-11.806
		c-0.084-2.292,0.988-2.726,2.582-2.307c0.705,0.186,1.452,0.891,1.864,1.585c2.616,4.396,5.127,8.864,7.719,13.272
		c0.396,0.671,1.031,1.635,1.586,1.66c3.475,0.151,6.959,0.077,10.88,0.077c-0.652-1.321-1.019-2.206-1.495-3.015
		c-3.278-5.579-6.542-11.166-9.893-16.693c-0.781-1.287-0.802-2.237,0.014-3.521c3.177-5,6.262-10.072,9.366-15.128
		C240.561-5.672,240.899-6.406,241.627-7.782z"/>
	<path fill="#808080" d="M190.771-20.083c-0.067,1.072-0.19,2.143-0.19,3.214c-0.012,19.845-0.036,39.693,0.035,59.537
		c0.008,2.202-0.524,2.901-2.595,2.891c-18.185-0.084-36.37-0.084-54.554-0.005c-2.063,0.01-2.609-0.674-2.601-2.886
		c0.072-19.922,0.044-39.845,0.032-59.769c0-0.993-0.125-1.987-0.194-2.982C150.728-20.083,170.749-20.083,190.771-20.083z
		 M171.342,11.818c1.238-1.83,2.79-3.355,3.458-5.253c2.342-6.643-1.788-13.311-8.714-13.806c-6.523-0.468-13.08-0.345-19.621-0.521
		c-1.574-0.042-1.894,0.952-1.891,2.356c0.021,12.118,0.049,24.239,0.041,36.358c-0.001,1.863,0.676,2.538,2.412,2.507
		c5.423-0.103,10.854,0.106,16.272-0.112c2.422-0.099,4.906-0.651,7.207-1.5c3.177-1.173,5.306-3.687,6.06-7.407
		C177.763,18.542,176.387,15.297,171.342,11.818z"/>
	<path fill="#808080" d="M319.363-20.083c-0.039,20.466-0.075,40.931-0.115,61.396c-0.011,4.766,0.32,4.183-3.885,4.187
		c-17.624,0.015-35.247-0.028-52.871,0.052c-2.045,0.01-2.623-0.642-2.615-2.873c0.073-19.924,0.042-39.851,0.03-59.776
		c0-0.995-0.122-1.991-0.187-2.986C279.6-20.083,299.481-20.083,319.363-20.083z M302.672,10.21c0,7.353,0.032,14.148-0.025,20.945
		c-0.014,1.679,0.476,2.385,2.064,2.296c1.898-0.107,3.807-0.083,5.708-0.014c1.383,0.052,1.891-0.639,1.889-2.068
		c-0.011-12.357-0.015-24.716,0.003-37.074c0.002-1.64-0.732-2.123-2.114-2.088c-2.465,0.065-4.935,0.081-7.4-0.008
		c-1.315-0.047-2.071,0.479-2.599,1.795c-1.384,3.464-2.853,6.885-4.298,10.32c-2.017,4.806-4.042,9.609-6.223,14.788
		c-0.582-1.281-1.001-2.15-1.376-3.041c-3.019-7.224-6.06-14.442-9.021-21.697c-0.621-1.525-1.396-2.29-3.012-2.185
		c-2.248,0.145-4.513,0.15-6.763,0.01c-1.909-0.117-2.405,0.759-2.388,2.718c0.074,8.186,0.029,16.373,0.029,24.56
		c0,3.939,0.043,7.879-0.014,11.817c-0.025,1.598,0.529,2.303,1.988,2.143c0.351-0.036,0.706-0.002,1.058,0
		c6.234,0.014,6.234,0.014,6.234-6.715c0-5.347,0-10.693,0-16.484c2.703,6.495,5.482,12.414,7.625,18.601
		c1.343,3.882,3.308,5.171,6.907,4.679c1.551-0.214,2.331-0.709,2.96-2.265C296.698,24.347,299.615,17.511,302.672,10.21z"/>
	<path fill="#808080" d="M393.519,105.243c-0.345,14.565-2.501,28.62-8.675,41.63c-7.393,15.579-18.663,25.9-34.588,29.546
		c-8.42,1.931-16.771,1.677-24.977-1.393c-2.389-0.892-2.367-0.86-2.757,1.813c-2.245,15.354-4.515,30.705-6.75,46.059
		c-0.203,1.395-0.794,1.967-2.106,1.962c-9.727-0.035-19.454-0.041-29.185,0.004c-1.646,0.008-1.865-0.825-1.627-2.33
		c4.326-27.384,8.65-54.769,12.942-82.158c3.712-23.673,7.39-47.35,11.054-71.029c0.227-1.481,0.814-2.243,2.17-2.688
		c9.254-3.036,18.647-5.318,28.261-6.365c5.593-0.613,11.211-1.302,16.816-1.276c7.428,0.032,14.744,1.312,21.419,5.262
		c9.978,5.899,14.935,15.583,16.771,27.419C392.983,96.161,393.126,100.725,393.519,105.243z M336.417,152.471
		c6.263-0.4,11.201-2.879,14.733-8.441c2.029-3.195,3.802-6.703,5.084-10.327c3.275-9.238,4.242-18.994,4.204-28.818
		c-0.015-3.87-0.693-7.827-1.635-11.574c-1.066-4.244-3.908-6.96-7.953-7.685c-4.3-0.766-8.58-0.254-12.708,1.191
		c-0.714,0.25-1.376,1.647-1.557,2.626c-0.899,4.903-1.628,9.844-2.417,14.77c-2.346,14.634-4.655,29.271-7.074,43.891
		c-0.277,1.677,0.233,2.302,1.524,2.599C331.216,151.304,333.817,151.884,336.417,152.471z"/>
	<path fill="#00A99D" d="M174.219,141.917c1.31,4.396,2.546,8.547,3.787,12.696c0.833,2.78,1.586,5.596,2.545,8.321
		c0.545,1.554,0.183,2.337-1.066,3.151c-6.468,4.215-13.399,7.16-20.692,9.052c-10.65,2.764-21.402,3.745-32.214,1.237
		c-15.668-3.639-25.203-14.396-27.691-31.455c-3.686-25.271,2.139-47.975,18.253-66.861c9.865-11.562,22.342-17.602,36.787-18.896
		c7.113-0.636,14.076-0.235,20.816,2.412c10.196,3.999,15.705,12.814,15.964,24.677c0.361,16.626-6.71,28.225-19.805,35.824
		c-8.433,4.896-17.578,7.313-26.955,8.77c-3.759,0.585-7.541,0.999-11.322,1.376c-1.217,0.122-1.595,0.704-1.518,1.915
		c0.556,8.628,4.615,15.155,13.496,16.467c8.131,1.201,15.593-1.384,22.843-5.015C169.66,144.474,171.816,143.223,174.219,141.917z
		 M133.099,110.577c9.219-0.962,17.623-2.962,24.521-9.61c2.123-2.047,3.405-4.668,3.917-7.749c0.77-4.643-2.012-8.456-6.299-8.728
		c-4.892-0.307-8.973,1.613-12.408,5.277C137.604,95.347,134.988,102.418,133.099,110.577z"/>
	<path fill="#808080" d="M543.04,142.169c2.22,7.45,4.357,14.461,6.321,21.528c0.166,0.591-0.676,1.881-1.336,2.324
		c-7.227,4.84-15.127,7.784-23.372,9.703c-6.711,1.563-13.507,2.265-20.345,1.816c-10.221-0.675-19.749-3.514-27.164-11.903
		c-5.489-6.207-8.479-13.821-9.507-22.266c-2.813-23.032,2.214-43.838,15.71-61.831c9.216-12.287,21.246-19.468,35.687-21.777
		c7.84-1.253,15.564-1.07,23.177,1.43c10.834,3.558,17.008,12.89,17.265,25.268c0.402,19.361-9.856,30.895-23.3,37.357
		c-8.779,4.223-18.059,6.312-27.542,7.45c-2.304,0.278-4.598,0.729-6.909,0.836c-1.69,0.082-2.004,0.936-1.869,2.507
		c0.884,10.243,6.865,16.342,16.357,16.484c8.623,0.13,16.432-3.019,23.921-7.372C540.984,143.231,541.864,142.796,543.04,142.169z
		 M501.948,110.227c0.471,0.191,0.73,0.402,0.973,0.382c7.59-0.682,14.847-2.588,21.249-7.336c3.034-2.254,5.408-5.156,6.276-9.231
		c1.166-5.474-1.746-9.439-6.805-9.652c-5.615-0.234-9.893,2.449-13.436,6.874C505.843,96.713,503.446,103.191,501.948,110.227z"/>
	<path fill="#808080" d="M300.93,62.612c-3.432,4.565-6.543,8.722-9.671,12.864c-9.796,12.965-19.563,25.958-29.433,38.852
		c-1.431,1.87-1.61,3.296-0.631,5.522c7.487,17.033,14.842,34.135,22.233,51.219c0.326,0.758,0.611,1.535,1.054,2.654
		c-0.88,0.084-1.531,0.204-2.188,0.204c-10.008,0.014-20.019-0.03-30.028,0.048c-1.678,0.013-2.515-0.627-3.167-2.29
		c-3.197-8.15-6.494-16.255-9.771-24.365c-0.361-0.89-0.816-1.731-1.442-3.045c-1.047,1.321-1.888,2.313-2.653,3.365
		c-5.743,7.915-11.505,15.816-17.178,23.796c-1.287,1.808-2.673,2.561-4.813,2.533c-10.08-0.116-20.16-0.039-30.241-0.034
		c-0.69,0-1.381,0-2.619,0c1.97-2.633,3.617-4.876,5.304-7.085c12.397-16.219,24.781-32.447,37.242-48.604
		c1.143-1.48,1.25-2.59,0.518-4.288c-7.037-16.325-14.001-32.69-20.981-49.048c-0.262-0.611-0.46-1.251-0.792-2.164
		c0.881-0.054,1.55-0.128,2.218-0.131c9.448-0.007,18.893,0.039,28.34-0.047c1.667-0.015,2.509,0.544,3.138,2.263
		c2.938,8.017,5.993,15.982,9.018,23.962c0.316,0.832,0.695,1.633,1.213,2.844c0.688-0.793,1.184-1.276,1.583-1.837
		c5.851-8.221,11.719-16.422,17.495-24.701c1.212-1.737,2.457-2.583,4.555-2.554c9.727,0.133,19.456,0.062,29.184,0.065
		C299.1,62.612,299.779,62.612,300.93,62.612z"/>
	<path fill="#808080" d="M722.502,94.644c-3.928-2.51-8.047-5.491-12.444-7.842c-3.949-2.11-8.256-3.054-12.728-1.902
		c-3.449,0.883-6.251,2.648-7.013,6.738c-0.741,3.973,0.678,7.295,3.698,9.384c2.895,2.002,6.104,3.474,9.207,5.11
		c5.631,2.974,11.643,5.291,16.846,8.978c8.971,6.364,11.891,16.205,10.85,27.562c-1.626,17.686-11.385,27.787-26.298,32.153
		c-19.722,5.775-38.637,3.019-56.354-8.346c-2.481-1.593-2.401-1.696-1.03-4.419c3.569-7.09,7.119-14.19,10.768-21.47
		c0.672,0.395,1.215,0.679,1.732,1.013c7.784,4.993,15.956,8.91,25.037,9.794c2.524,0.246,5.205-0.239,7.685-0.941
		c2.94-0.834,4.751-3.21,5.224-6.599c0.477-3.412-0.918-6.052-3.481-7.563c-3.579-2.107-7.412-3.7-11.109-5.567
		c-4.846-2.449-9.934-4.485-14.438-7.543c-7.763-5.273-11.241-13.488-11.551-23.399c-0.366-11.58,2.789-21.625,10.882-29.387
		c6.169-5.914,13.593-8.962,21.569-10.41c15.715-2.854,30.234,0.457,43.319,10.565c1.946,1.502,3.64,3.397,5.449,5.11
		c0.752,0.712,1.016,1.43,0.167,2.317C733.123,83.551,727.774,89.141,722.502,94.644z"/>
	<path fill="#808080" d="M633.28,95.265c-2.836-2.112-5.536-4.336-8.421-6.229c-4.281-2.813-8.906-4.694-13.983-4.537
		c-1.725,0.055-3.533,0.432-5.128,1.14c-5.958,2.643-7.101,10.393-1.995,14.697c2.633,2.222,5.814,3.722,8.863,5.277
		c4.91,2.503,10.057,4.488,14.852,7.225c7.151,4.086,12.157,10.398,13.511,19.323c2.744,18.117-4.4,33.628-20.734,40.818
		c-9.869,4.344-20.164,5.263-30.688,4.254c-10.308-0.984-20.093-3.895-29.052-9.613c-5.236-3.344-4.34-2.221-1.887-7.253
		c2.786-5.72,5.663-11.383,8.51-17.066c0.431-0.864,0.908-1.701,1.454-2.709c1.054,0.647,1.966,1.191,2.859,1.758
		c7.327,4.623,15.047,8.198,23.529,8.976c2.968,0.273,6.283-0.221,9.02-1.467c5.32-2.423,5.892-9.656,1.137-13.188
		c-2.759-2.051-5.954-3.439-9.037-4.919c-4.189-2.009-8.567-3.572-12.668-5.765c-9.361-5.001-14.943-12.958-15.687-24.704
		c-0.816-12.881,2.692-23.711,11.961-31.97c6.016-5.355,13.133-7.989,20.644-9.392c11.989-2.237,23.553-0.531,34.587,5.088
		c5.083,2.587,9.657,6.034,13.647,10.385c0.9,0.981,1.169,1.738,0.137,2.876c-5.014,5.538-9.969,11.134-14.952,16.703
		C633.621,95.134,633.401,95.196,633.28,95.265z"/>
	<path fill="#808080" d="M435.703,77.482c6.04-10.348,13.858-17.915,25.531-18.456c5.538-0.256,11.06,0.823,16.097,4.29
		c-1.775,5.633-3.519,11.16-5.256,16.689c-1.097,3.498-2.263,6.977-3.259,10.51c-0.521,1.863-1.123,2.468-2.968,1.585
		c-4.09-1.957-8.354-2.971-12.912-2.663c-8.637,0.585-14.658,7.382-16.182,16.908c-3.485,21.761-7.069,43.504-10.593,65.261
		c-0.254,1.571-0.787,2.376-2.465,2.362c-9.512-0.082-19.027-0.066-28.541,0c-1.781,0.014-2.184-0.724-1.893-2.519
		c4.048-25.016,7.986-50.051,12.13-75.046c1.663-10.043,2.632-20.117,2.594-30.32c-0.013-3.334,0.267-3.592,3.219-3.59
		c6.977,0.005,13.954,0.081,20.93-0.007c1.897-0.025,2.58,0.549,2.561,2.739c-0.028,3.984,0.265,7.973,0.421,11.959
		C435.311,77.285,435.508,77.383,435.703,77.482z"/>
	<path fill="#00A99D" d="M-58.302,173.923c5.487-4.334,10.553-8.333,15.618-12.334c6.399-5.059,12.768-10.161,19.225-15.133
		c1.015-0.78,2.414-1.366,3.637-1.368c34.746-0.072,69.492-0.05,104.238-0.078c1.32,0,2.239,0.104,2.506,1.873
		c1.545,10.222,5.307,19.275,12.4,27.04C46.705,173.923-5.495,173.923-58.302,173.923z"/>
	<path fill="#00A99D" d="M-33.512,131.465c0.991-0.89,1.431-1.333,1.913-1.713c11.028-8.708,22.045-17.429,33.12-26.066
		c0.955-0.747,2.286-1.288,3.443-1.291c27.831-0.066,55.665-0.047,83.496-0.035c0.553,0,1.104,0.08,1.704,0.127
		c-0.929,4.362-2.01,8.579-2.69,12.873c-0.72,4.542-1.174,9.146-1.51,13.747c-0.145,1.967-0.824,2.367-2.467,2.362
		c-19.589-0.042-39.177-0.011-58.765-0.005c-18.319,0.005-36.64,0.001-54.959,0.001C-31.108,131.465-31.989,131.465-33.512,131.465z
		"/>
	<path fill="#00A99D" d="M117.493,60.776c-7.714,6.18-13.685,13.397-18.534,21.743c-0.605,1.04-1.346,2.041-1.716,3.182
		c-1.083,3.33-3.079,4.106-6.264,4.091C57.572,89.63,24.164,89.68-9.243,89.673c-0.761,0-1.523,0-2.739,0
		c0.783-0.721,1.212-1.169,1.687-1.543c11.137-8.816,22.27-17.636,33.438-26.397c0.744-0.583,1.77-1.04,2.664-1.04
		c30.095-0.05,60.19-0.035,90.285-0.027C116.369,60.663,116.644,60.706,117.493,60.776z"/>
	<path fill="#808080" d="M159.699,25.13c-5.551,0.032-5.466,0.03-5.574-6.052c-0.041-2.243,0.583-3.031,2.626-2.865
		c2.173,0.176,4.37-0.019,6.549,0.087c2.615,0.128,3.641,1.492,3.615,4.55c-0.024,2.896-1.053,4.138-3.622,4.271
		C162.097,25.182,160.896,25.13,159.699,25.13z"/>
	<path fill="#808080" d="M158.716,9.099c-5.239-0.292-4.489,0.563-4.538-5.067c-0.03-3.499-0.003-3.549,3.264-3.484
		c2.032,0.042,4.069,0.173,6.085,0.433c1.657,0.214,2.375,1.579,2.475,3.255c0.107,1.808-0.335,3.549-2.104,4.071
		C162.226,8.797,160.448,8.853,158.716,9.099z"/>
</g>
</svg>
